<svg xmlns="http://www.w3.org/2000/svg" viewBox="0 0 157 13">
  <path fill="#000" fill-rule="evenodd" d="M10.1636.9104h.7043l-.2876 3.6366h-.575c-.2012-.8816-.5917-1.5763-1.1714-2.0842-.5798-.508-1.2817-.7618-2.1058-.7618-.5654 0-1.0684.1126-1.5092.3378-.4408.2252-.8122.5462-1.114.963-.302.417-.532.9248-.69 1.5237-.158.599-.237 1.272-.237 2.0195 0 1.4853.304 2.628.9126 3.4282.6085.8 1.507 1.2002 2.695 1.2002.9584 0 1.7513-.2587 2.379-.7762.6277-.5175 1.0756-1.2888 1.344-2.3142h.6324v3.8953h-.6756l-.2012-1.1355c-1.054.853-2.3334 1.2793-3.8378 1.2793-.872 0-1.6626-.1293-2.3717-.388-.709-.2587-1.3128-.6253-1.811-1.0996-.4984-.4744-.884-1.0517-1.1572-1.732C.8135 8.222.6768 7.4648.6768 6.631c0-.872.1437-1.6673.4312-2.386.2875-.7187.6924-1.3368 1.2146-1.8543.5223-.5175 1.145-.9176 1.8686-1.2003.7235-.2827 1.526-.424 2.4076-.424.5846 0 1.1308.0814 1.6387.2444.508.163 1.0588.4265 1.653.7906l.273-.8912zm8.3512 5.807c0-.3832-.0096-.6875-.0287-.9126-.019-.2252-.0718-.3977-.158-.5175-.0863-.1198-.2133-.2012-.381-.2444-.1676-.0432-.3952-.079-.6827-.108v-.5748h3.2485v4.3553c0 .5845.0072 1.042.0216 1.3727.0143.3306.0407.5773.079.7402.0288.1246.0623.2228.1006.2947.0384.072.1006.1295.187.1726.086.043.2035.072.352.0862.1486.0144.3426.0216.5822.0216v.5606l-2.8604.1725-.158-1.2793h-.0576c-.2492.4024-.599.714-1.0493.9343-.4505.2204-.9536.3306-1.5094.3306-1.0253 0-1.8063-.364-2.343-1.0923-.412-.5558-.618-1.3464-.618-2.3717V6.7175c0-.393-.0096-.702-.0288-.927-.019-.2253-.0694-.3954-.151-.5104-.0813-.115-.2035-.194-.3664-.237-.163-.0432-.388-.079-.6756-.108v-.5748h3.2198V8.428c0 .9678.1197 1.6698.3593 2.1058.2395.436.6228.654 1.1498.654.5654 0 1.0014-.2588 1.308-.7762.3067-.4983.46-1.2314.46-2.1992v-1.495zm7.0576 2.9036c0 .3833.0144.69.043.92.029.23.0864.4072.1726.5318.0863.1246.2108.2084.3737.2515.163.0432.3833.0695.6612.079v.575H22.295v-.575c.2683-.0095.4863-.0406.654-.0933.1677-.0527.297-.139.388-.2588.091-.1198.1534-.2875.187-.503.0335-.2157.0502-.4912.0502-.8266V3.7852c0-.5558-.0096-1.0133-.0287-1.3727-.0192-.3593-.043-.606-.072-.7402-.0478-.2396-.1556-.3977-.3233-.4744-.1677-.0767-.472-.115-.9127-.115V.594L25.5724.048v9.573zm1.9117-4.4703V4.504c.575-.163 1.0566-.4097 1.4447-.7403.388-.3306.678-.7116.8696-1.1428h.733V4.36h1.653v.7905h-1.653v4.4128c0 .594.0648 1.0158.1942 1.265.1293.249.3473.3737.654.3737.3737 0 .6564-.1725.848-.5175l.302.4168c-.2684.6804-.901 1.0206-1.8975 1.0206-.6612 0-1.1762-.1532-1.5452-.46-.369-.3065-.5534-.7377-.5534-1.2935V5.1507H27.484zm11.8155 1.5668c0-.3833-.0096-.6876-.0288-.9127-.019-.2252-.0718-.3977-.158-.5175-.0863-.1198-.2133-.2012-.381-.2444-.1677-.0432-.3953-.079-.6827-.108v-.5748h3.2485v4.3553c0 .5845.007 1.042.0215 1.3727.0144.3306.0407.5773.079.7402.0288.1246.0624.2228.1007.2947.0383.072.1006.1295.187.1726.086.043.2035.072.352.0862.1485.0144.3426.0216.5822.0216v.5606l-2.8606.1725-.158-1.2793h-.0576c-.249.4024-.599.714-1.0493.9343-.4503.2204-.9534.3306-1.5092.3306-1.0254 0-1.8063-.364-2.343-1.0923-.412-.5558-.618-1.3464-.618-2.3717V6.7175c0-.393-.0096-.702-.0288-.927-.0192-.2253-.0695-.3954-.151-.5104-.0814-.115-.2035-.194-.3664-.237-.163-.0432-.388-.079-.6755-.108v-.5748h3.2197V8.428c0 .9678.1198 1.6698.3594 2.1058.2395.436.6228.654 1.15.654.5653 0 1.0013-.2588 1.308-.7762.3066-.4983.46-1.2314.46-2.1992v-1.495zm10.191 0c0-.3833-.0095-.6876-.0287-.9127-.019-.2252-.0718-.3977-.158-.5175-.0863-.1198-.2133-.2012-.381-.2444-.1677-.0432-.3953-.079-.6827-.108v-.5748h3.2486v4.3553c0 .5845.007 1.042.0215 1.3727.0145.3306.0408.5773.0792.7402.0287.1246.0623.2228.1006.2947.0383.072.1006.1295.187.1726.086.043.2035.072.352.0862.1485.0144.3426.0216.5822.0216v.5606l-2.8605.1725-.158-1.2793h-.0576c-.2492.4024-.599.714-1.0494.9343-.4503.2204-.9534.3306-1.5092.3306-1.0254 0-1.8063-.364-2.343-1.0923-.412-.5558-.618-1.3464-.618-2.3717V6.7175c0-.393-.0096-.702-.0288-.927-.0192-.2253-.0695-.3954-.151-.5104-.0814-.115-.2035-.194-.3664-.237-.163-.0432-.388-.079-.6756-.108v-.5748h3.2197V8.428c0 .9678.1198 1.6698.3594 2.1058.2395.436.6228.654 1.15.654.5653 0 1.0013-.2588 1.308-.7762.3066-.4983.46-1.2314.46-2.1992v-1.495zm7.2158 3.033c0 .3736.0168.6683.0503.884.0335.2155.103.3808.2084.4958.1054.115.2587.1892.46.2228.2012.0336.4695.0504.805.0504v.575h-4.801v-.575c.2875-.0192.5175-.048.69-.0863.1725-.0382.3018-.1148.388-.2298.0863-.115.1414-.2803.1654-.496.024-.2155.036-.5054.036-.8696V7.968c0-.594-.0145-1.0684-.0432-1.423-.0288-.3546-.091-.6277-.187-.8193-.0957-.1917-.2322-.3186-.4095-.381-.1773-.0622-.4097-.0933-.6972-.0933v-.503l2.8748-.532.23 1.653h.0575c.2587-.5078.599-.9103 1.0205-1.2074.4217-.297.8673-.4456 1.3368-.4456.3643 0 .6613.091.8913.273.23.1822.345.4122.345.69 0 .3067-.0887.5655-.266.7763-.1772.2108-.4192.3162-.7258.3162-.1438 0-.273-.0288-.388-.0863-.115-.0575-.218-.1222-.3092-.194-.091-.072-.182-.139-.273-.2013-.091-.0623-.1845-.0935-.2804-.0935-.182 0-.3546.1197-.5175.3593-.163.2396-.297.5606-.4025.963-.0766.2875-.139.611-.1868.9703-.048.3593-.072.7163-.072 1.0708v.69zm3.694-5.3903h1.5525v-.805c0-.5174.0886-.9918.266-1.423.1772-.4312.424-.8025.74-1.114.3164-.3114.6973-.551 1.143-.7187.4455-.1677.9413-.2515 1.4876-.2515.3258 0 .6252.031.8983.0934.273.0623.5103.1462.7115.2516.2013.1054.357.2347.4672.388.1102.1534.1653.3163.1653.4888 0 .2204-.0815.4025-.2444.5462-.163.1437-.369.2156-.618.2156-.1725 0-.3235-.0575-.4528-.1725-.1294-.115-.3234-.3257-.5822-.6323-.115-.1342-.2347-.23-.3593-.2875-.1246-.0575-.254-.0863-.388-.0863-.3834 0-.6853.2323-.9057.697-.2204.4648-.3306 1.1045-.3306 1.919v.8912H66.38v.7905h-2.4293v4.4416c0 .364.0216.6612.0647.8912.043.23.1246.412.2444.5462.1198.134.2803.2276.4815.2803s.46.0838.7762.0934v.575H60.659v-.575c.2876-.0096.5176-.036.69-.079.1725-.0432.302-.1246.3882-.2444s.1437-.2875.1724-.503c.0288-.2157.0432-.5056.0432-.8697V5.1507h-1.5524v-.7905zm10.838-.1438c.575 0 1.1188.0983 1.6314.2947.5127.1965.963.4672 1.3512.8122.388.345.6946.7547.9198 1.229.2252.4743.3378.9942.3378 1.5596 0 .5845-.1126 1.121-.3378 1.6098-.2252.4888-.5318.9104-.92 1.265-.388.3545-.8384.6324-1.351.8336-.5127.2013-1.0565.302-1.6315.302-.5654 0-1.102-.0983-1.61-.2948-.5078-.1964-.9533-.472-1.3366-.8265-.3834-.3546-.6852-.7787-.9056-1.2722-.2203-.4935-.3305-1.0325-.3305-1.617 0-.5654.1102-1.0877.3306-1.5668.2205-.479.5223-.8912.9057-1.236.3833-.345.8288-.6134 1.3367-.805.508-.1917 1.0445-.2876 1.61-.2876zm0 .8337c-.2875 0-.551.0744-.7906.223-.2395.1484-.4432.357-.611.6252-.1675.2683-.297.5917-.388.9702-.091.3785-.1365.7978-.1365 1.2577 0 .4793.0455.9105.1366 1.2938.091.3833.2204.709.388.9774.1677.2683.369.4767.6038.6253.2347.1485.5006.2228.7977.2228.297 0 .5678-.0743.812-.2228.2445-.1486.453-.3594.6254-.6325.1725-.273.3066-.6013.4025-.9846.0958-.3833.1437-.8097.1437-1.2793 0-.4598-.048-.8767-.1438-1.2504-.096-.3737-.23-.697-.4025-.9702-.1725-.273-.381-.484-.6253-.6325-.2443-.1486-.515-.223-.812-.223zm8.4662 4.5854c0 .393.012.702.036.927.024.2253.0766.3978.158.5176.0815.1198.206.1988.3738.237.1677.0385.3953.0672.6828.0864v.575h-4.5277v-.575c.278-.0192.5007-.048.6684-.0863.1677-.0382.297-.1148.388-.2298.091-.115.151-.278.1797-.4888.0288-.2108.0432-.4982.0432-.8624V7.9393c0-.5654-.0096-1.023-.0288-1.3727-.0192-.3498-.043-.587-.072-.7115-.0286-.1245-.067-.2275-.1148-.309-.048-.0814-.1198-.1437-.2157-.1868-.0958-.0432-.2156-.072-.3593-.0863-.1437-.0145-.3258-.0216-.5462-.0216v-.4888l2.7742-.5462.1868 1.265h.0575c.3162-.4025.69-.714 1.1212-.9344.4312-.2204.9055-.3306 1.423-.3306.6133 0 1.1092.084 1.4877.2516.3785.1677.7163.448 1.0133.841.163.2203.3067.5053.4313.855.1245.35.1868.8314.1868 1.4447v2.0267c0 .393.012.702.036.927.024.2253.0766.3978.158.5176.0815.1198.2037.1988.3666.237.163.0385.3833.0672.6612.0864v.575h-4.499v-.575c.2875-.0096.515-.036.6827-.079.1678-.0432.2948-.1222.381-.2372.0863-.115.1438-.2803.1725-.496.0288-.2155.0432-.5006.0432-.8552V7.7812c0-.4888-.0288-.9008-.0863-1.2362-.0575-.3354-.151-.606-.2803-.812-.1292-.206-.2993-.3547-.5102-.4457-.2108-.091-.4743-.1366-.7905-.1366-.3067 0-.5702.0863-.7906.2588-.2204.1725-.412.412-.575.7187-.0862.1724-.1604.3952-.2227.6683-.0623.2732-.0935.5582-.0935.8553v1.9836zm13.6696 1.423h-.0574c-.6612.709-1.5188 1.0637-2.573 1.0637-.546 0-1.0468-.0957-1.502-.2874-.4552-.1916-.848-.46-1.1786-.805-.3306-.345-.587-.7546-.769-1.229-.182-.4742-.273-.999-.273-1.5738 0-.575.0933-1.1068.28-1.5956.187-.4887.441-.9127.762-1.272.321-.3594.7043-.6397 1.15-.841.4455-.2012.927-.3018 1.4445-.3018.479 0 .903.072 1.272.2156.369.1438.6924.388.9703.733h.0575V3.9434c0-.5653-.0072-1.0517-.0216-1.459-.0144-.4072-.036-.673-.0647-.7977-.048-.2012-.194-.3473-.4384-.4384-.2443-.091-.6204-.1365-1.1283-.1365V.623L94.941.048V8.27c0 .7186.007 1.272.0214 1.66.0144.3882.0408.6828.079.884.0193.1246.048.2252.0863.302.0384.0766.096.1365.1725.1796.0767.043.1797.072.309.0862.1294.0144.2947.0216.496.0216v.5606l-2.731.158v-1.0636zm-.4455-3.2054c0-.364-.0383-.702-.115-1.0133-.0766-.3115-.1916-.587-.345-.8265-.1724-.278-.3928-.4887-.661-.6325-.2685-.1437-.556-.2156-.8626-.2156-.5654 0-.9967.2588-1.2937.7763-.297.5175-.4456 1.2697-.4456 2.2567 0 .9966.1485 1.7632.4456 2.2998.297.5367.7235.805 1.2793.805.3162 0 .618-.0815.9055-.2444.2876-.163.5224-.3833.7044-.6612.1342-.2108.2324-.472.2947-.7834.0624-.3114.0935-.7115.0935-1.2002V7.853zm4.729 4.1253h-.4455v-2.616h.6037c.163.69.3976 1.193.7043 1.5093.3066.3162.7043.4743 1.193.4743.3546 0 .63-.0744.8265-.223.1965-.1484.2947-.352.2947-.6108 0-.2683-.1198-.5294-.3594-.7834-.2395-.254-.6276-.5246-1.1643-.812-.7282-.393-1.2505-.7835-1.5667-1.1716-.3162-.388-.4744-.8265-.4744-1.3152 0-.3162.06-.611.1797-.884.12-.273.2828-.5103.4888-.7115.206-.2012.4528-.357.7403-.467.2876-.1103.599-.1654.9344-.1654.297 0 .5917.0432.884.1294.2923.0863.5486.206.769.3594l.2587-.345h.3738v2.1705h-.5605c-.2204-.5463-.448-.939-.6828-1.1787-.2348-.2396-.52-.3593-.8552-.3593-.2684 0-.4816.0718-.6397.2156-.158.1436-.2372.3352-.2372.5748 0 .2683.1174.5223.3522.7618.2348.2396.6253.503 1.1715.7906.3834.2108.714.4168.992.618.2778.2013.503.405.6755.611.1724.206.2994.4216.381.6468.0813.2252.122.467.122.726 0 .3353-.0622.637-.1868.9054-.1246.2683-.302.4983-.532.69-.2298.1916-.5053.3402-.8264.4456-.321.1054-.678.158-1.0708.158-.412 0-.7954-.055-1.15-.1652-.3545-.1102-.6467-.2707-.8767-.4815l-.3163.503zm9.7743 0v-.575c.3258-.0095.587-.0382.7834-.0862.1964-.0478.3497-.1292.46-.2442.11-.115.1844-.278.2227-.4887s.0574-.4838.0574-.8192V3.124c0-.3354-.0143-.606-.043-.812-.0288-.206-.0887-.369-.1798-.4888-.091-.1198-.2156-.2013-.3737-.2444-.1582-.043-.3666-.0742-.6253-.0934v-.575h4.614c1.447 0 2.561.2324 3.342.6972.781.4647 1.1714 1.1283 1.1714 1.9908 0 1.1403-.8192 1.9452-2.458 2.4148v.0575c.5272 0 1.004.0742 1.4303.2228.4265.1485.7882.357 1.0853.6252.297.2683.527.5846.69.9487.1628.364.2443.7618.2443 1.193 0 .4888-.1175.9152-.3523 1.2793-.2348.3642-.5725.6708-1.0133.92-.853.479-2.0268.7186-3.5216.7186h-5.534zm5.6346-.8768c1.5428 0 2.3142-.6947 2.3142-2.0842 0-.8528-.278-1.4757-.8337-1.8686-.2876-.2012-.659-.345-1.114-.4312-.4553-.0863-1.0135-.1294-1.6747-.1294h-.69v2.875c0 .594.1534 1.0157.46 1.2648.3067.2492.8194.3737 1.538.3737zm-1.15-5.3758c.4313 0 .805-.0407 1.1212-.1222.3162-.0814.5846-.1988.805-.352.46-.3164.69-.81.69-1.4807 0-.6995-.1726-1.205-.5176-1.5164-.345-.3114-.9007-.4672-1.6673-.4672h-1.0206c-.1724 0-.2586.0815-.2586.2444v3.694h.848zm11.2117-1.5093c.575 0 1.119.0983 1.6315.2947.5127.1965.963.4672 1.3512.8122.388.345.6947.7547.92 1.229.225.4743.3377.9942.3377 1.5596 0 .5845-.1126 1.121-.3378 1.6098-.2252.4888-.5318.9104-.92 1.265-.388.3545-.8384.6324-1.351.8336-.5127.2013-1.0565.302-1.6315.302-.5653 0-1.102-.0983-1.6098-.2948-.508-.1964-.9534-.472-1.3367-.8265-.3834-.3546-.6852-.7787-.9056-1.2722-.2205-.4935-.3307-1.0325-.3307-1.617 0-.5654.1102-1.0877.3306-1.5668.2203-.479.522-.8912.9055-1.236.3833-.345.8288-.6134 1.3367-.805.508-.1917 1.0445-.2876 1.61-.2876zm0 .8337c-.2874 0-.551.0744-.7905.223-.2395.1484-.4432.357-.611.6252-.1675.2683-.297.5917-.388.9702-.091.3785-.1365.7978-.1365 1.2577 0 .4793.0455.9105.1366 1.2938.091.3833.2204.709.388.9774.1677.2683.369.4767.6038.6253.2347.1485.5006.2228.7977.2228.2972 0 .568-.0743.8122-.2228.2444-.1486.4528-.3594.6253-.6325.1725-.273.3066-.6013.4025-.9846.0958-.3833.1437-.8097.1437-1.2793 0-.4598-.048-.8767-.1437-1.2504-.096-.3737-.23-.697-.4025-.9702-.1725-.273-.381-.484-.6253-.6325-.2443-.1486-.515-.223-.812-.223zm8.4807 4.7004c0 .3737.0168.6684.0503.884.0336.2156.103.381.2084.496.1054.115.2588.189.46.2227.2012.0336.4695.0504.805.0504v.575h-4.801v-.575c.2875-.0192.5175-.048.69-.0863.1725-.0382.302-.1148.388-.2298.0863-.115.1414-.2803.1654-.496.024-.2155.036-.5054.036-.8696V7.968c0-.594-.0144-1.0684-.0432-1.423-.0287-.3546-.091-.6277-.1868-.8193-.096-.1917-.2324-.3186-.4097-.381-.1772-.0622-.4096-.0933-.697-.0933v-.503l2.8747-.532.23 1.653h.0575c.2588-.5078.599-.9103 1.0206-1.2074.4216-.297.8672-.4456 1.3367-.4456.3642 0 .6612.091.8912.273.23.1822.345.4122.345.69 0 .3067-.0886.5655-.266.7763-.1772.2108-.4192.3162-.7258.3162-.1438 0-.2732-.0288-.3882-.0863-.115-.0575-.218-.1222-.309-.194-.091-.072-.182-.139-.273-.2013-.0912-.0623-.1846-.0935-.2804-.0935-.182 0-.3546.1197-.5175.3593-.163.2396-.2972.5606-.4026.963-.0766.2875-.139.611-.1868.9703-.048.3593-.072.7163-.072 1.0708v.69zm11.2117.8912c-.872.987-1.9597 1.4805-3.263 1.4805-.594 0-1.133-.0933-1.617-.2802-.484-.187-.8984-.4504-1.2433-.7906-.345-.3402-.6132-.745-.805-1.2146-.1915-.4695-.2873-.9918-.2873-1.5667 0-.5943.1006-1.138.3018-1.6316.2012-.4935.4863-.92.8553-1.2792.369-.3594.805-.6397 1.308-.841.503-.2012 1.0565-.3018 1.6602-.3018 1.0157 0 1.8063.273 2.3717.8193.5653.5463.848 1.313.848 2.3 0 .1532-.024.2466-.072.2802-.0478.0334-.182.0502-.4023.0502h-4.6284c-.0383.0862-.0575.2443-.0575.4743 0 .939.2036 1.6818.611 2.228.407.5462.9605.8193 1.66.8193.4025 0 .8026-.091 1.2003-.273.3977-.1822.7834-.441 1.157-.7763l.4026.503zm-2.7886-3.7804c.3833 0 .63-.0215.7403-.0647.1103-.043.1654-.146.1654-.309 0-.4216-.1198-.7666-.3594-1.035-.2395-.2682-.5414-.4024-.9055-.4024-.412 0-.7786.1702-1.0996.5104-.3212.3402-.5296.7738-.6254 1.3008h2.0842zm11.1973 3.7804c-.872.987-1.9595 1.4805-3.2628 1.4805-.594 0-1.133-.0933-1.617-.2802-.484-.187-.8984-.4504-1.2434-.7906-.345-.3402-.6133-.745-.805-1.2146-.1916-.4695-.2874-.9918-.2874-1.5667 0-.5943.1006-1.138.3018-1.6316.2013-.4935.4864-.92.8553-1.2792.369-.3594.805-.6397 1.308-.841.503-.2012 1.0565-.3018 1.6602-.3018 1.0158 0 1.8063.273 2.3717.8193.5654.5463.848 1.313.848 2.3 0 .1532-.024.2466-.0718.2802-.048.0334-.182.0502-.4025.0502h-4.6283c-.0383.0862-.0575.2443-.0575.4743 0 .939.2037 1.6818.611 2.228.4072.5462.9606.8193 1.66.8193.4026 0 .8026-.091 1.2003-.273.3977-.1822.7834-.441 1.157-.7763l.4026.503zm-2.7884-3.7804c.3833 0 .63-.0215.7402-.0647.1102-.043.1653-.146.1653-.309 0-.4216-.1197-.7666-.3592-1.035-.2396-.2682-.5415-.4024-.9056-.4024-.412 0-.7786.1702-1.0996.5104-.321.3402-.5294.7738-.6253 1.3008h2.0843zm6.9857 2.7598c0 .3833.0143.69.043.92.0288.23.0863.4072.1726.5318.086.1246.2107.2084.3736.2515.163.0432.3833.0695.6612.079v.575h-4.5278v-.575c.2683-.0095.4863-.0406.654-.0933.1677-.0527.297-.139.388-.2588.0912-.1198.1534-.2875.187-.503.0335-.2157.0503-.4912.0503-.8266V3.7852c0-.5558-.0096-1.0133-.0288-1.3727-.019-.3593-.043-.606-.0718-.7402-.048-.2396-.1557-.3977-.3234-.4744-.1677-.0767-.472-.115-.9128-.115V.594l3.3348-.5462v9.573z"/>
</svg>
